# xmcd CD database file
# Generated: Thu Nov 29 09:42:29 2001 by KSCD
# 
# Track frame offsets:
#       150
#       14755
#       33620
#       44845
#       61935
#       83155
#       101947
#       114227
#       129952
#       148430
#       160880
#
# Disc length: 2344 seconds
#
# Revision: 3
# Processed by: cddbd v1.4PL0 Copyright (c) Steve Scherf et al.
# Submitted via: Kscd 1.2.7
#
DISCID=a009260b
DTITLE=Barry Ward - Long Way Home
DYEAR=1900
DGENRE=
TTITLE0=Last Chance
TTITLE1=Ride On
TTITLE2=The Look
TTITLE3=Long Way Home
TTITLE4=Mexican Moonlight
TTITLE5=This Cowboy Will Never Be The Same
TTITLE6=Cattle On The Hills
TTITLE7=White Man's Feet
TTITLE8=Angel's Heart
TTITLE9=God's Perfect Love
TTITLE10=Takes Me Back In Time
EXTD=All Songs written by Barry Ward.\nCopyright 2001. All Rights Reserved.
EXTD=\n\nThe Players:\nBarry Ward, Bill VanWhye, Marco Alvarez, Stu Stewart
EXTD=, Jim Farrell,\nRay "Butch" Rich, Robert Lee Koehn\n\nThe Singers:\nBa
EXTD=rry Ward, Pat Rich, Tammy Mouser, Sierra Ward\n\nRecorded at Sound Sui
EXTD=te Studio, Liberal, KS
EXTT0=
EXTT1=
EXTT2=
EXTT3=
EXTT4=
EXTT5=
EXTT6=
EXTT7=
EXTT8=
EXTT9=
EXTT10=
PLAYORDER=
